***************************************************************

[IMG]http://www.torrentforce.org/imghost/3/greyshadow_tfbanner.png[/IMG]

***************************************************************

[IMG]http://www.torrentforce.org/imghost/4/greyshadow_exorcismusppeeutrand.png[/IMG]

***************************************************************

FILM TITLE: Exorcismus (2010) La posesión de Emma Evans (original title)

***************************************************************

Genre: Horror     

Release: 29 December 2010 (Spain) 

Director: Manuel Carballo

Writer: David Muñoz (screenplay)

Stars: Sophie Vavasseur, Stephen Billington and Richard Felix

Country: Spain

Language: English

Plot:
A family allows their young daughter's exorcism to be recorded secretly.

IMDB Rating: 5.2/10 from 949 users
 
http://www.imdb.com/title/tt1322306/ 

****************************************************************

[IMG]http://www.torrentforce.org/imghost/4/greyshadow_exorcismus720px264mp4.png[/IMG]
[IMG]http://www.torrentforce.org/imghost/4/greyshadow_exorcismusx264720pmp41.png[/IMG]
[IMG]http://www.torrentforce.org/imghost/4/greyshadow_exorcismusx264720pmp42.png[/IMG]
[IMG]http://www.torrentforce.org/imghost/4/greyshadow_exorcismusx264720pmp43.png[/IMG]
[IMG]http://www.torrentforce.org/imghost/4/greyshadow_exorcismusx264720pmp44.png[/IMG]

****************************************************************

[IMG]http://www.torrentforce.org/imghost/2/greyshadow_mediainfo.png[/IMG]
General
Complete name                    : Exorcismus 2010 720p BDRip x264 ac3 (mp4) [TFRG].mp4
Format                           : MPEG-4
Format profile                   : Base Media
Codec ID                         : isom
File size                        : 2.92 GiB
Duration                         : 1h 40mn
Overall bit rate                 : 4138 Kbps
Encoded date                     : UTC 2011-11-26 13:13:31
Tagged date                      : UTC 2011-11-26 13:13:31

Video
ID                               : 1
Format                           : AVC
Format/Info                      : Advanced Video Codec
Format profile                   : High@L4.1
Format settings, CABAC           : Yes
Format settings, ReFrames        : 12 frames
Codec ID                         : avc1
Codec ID/Info                    : Advanced Video Coding
Duration                         : 1h 40mn
Bit rate                         : 3500 Kbps
Maximum bit rate                 : 31.0 Mbps
Width                            : 1280 pixels
Height                           : 544 pixels
Display aspect ratio             : 2.35:1
Frame rate mode                  : Constant
Frame rate                       : 24.000 fps
Color space                      : YUV
Chroma subsampling               : 4:2:0
Bit depth                        : 8 bits
Scan type                        : Progressive
Bits/(Pixel*Frame)               : 0.209
Stream size                      : 2.47 GiB (84%)
Title                            : exorcismus 720p x264 ac3
Writing library                  : x264 core 119 r2106 07efeb4
Encoded date                     : UTC 2011-11-25 10:03:21
Tagged date                      : UTC 2011-11-26 13:14:39
Color primaries                  : BT.709-5, BT.1361, IEC 61966-2-4, SMPTE RP177
Transfer characteristics         : BT.709-5, BT.1361
Matrix coefficients              : BT.709-5, BT.1361, IEC 61966-2-4 709, SMPTE RP177

Audio
ID                               : 2
Format                           : AC-3
Format/Info                      : Audio Coding 3
Mode extension                   : CM (complete main)
Codec ID                         : ac-3
Duration                         : 1h 40mn
Bit rate mode                    : Constant
Bit rate                         : 640 Kbps
Channel(s)                       : 6 channels
Channel positions                : Front: L C R, Side: L R, LFE
Sampling rate                    : 48.0 KHz
Bit depth                        : 16 bits
Compression mode                 : Lossy
Stream size                      : 462 MiB (15%)
Title                            : exorcismus 720p x264 ac3
Language                         : English
Encoded date                     : UTC 2011-11-26 13:14:23
Tagged date                      : UTC 2011-11-26 13:14:39

****************************************************************

Video Source: Exorcismus 2011 1080p Blu-ray AVC DTS-HD MA 5.1-HDChina (20.2GB)

Thanks: (chdbits.org)

****************************************************************

My Exorcismus encode is available in 720p xvid / 720p x264 / 1080p xvid / 1080p x264

****************************************************************

I provide a small sample, so please download this to check your 
compatibility first if you are unsure.

****************************************************************

7th October 2011

I am re-introducing my warning to all downloaders, please please
please use a proxy or vpn service, it is the only secure way to
keep your own ip address from being seen during downloading or
uploading/seeding, this WILL stop isp letters, as for advice to 
which one then thats simple, vpntunnel.se server based in Sweden 
is the right one to use, I have cancelled my vpn and transfered 
to a Swedish one already !!! enough said. 

****************************************************************

A big thanks to all the sites out there who care and share and
who make it possible for you to download this torrent for free.

Greetz to Westy, Ripwyn, mustang, noir, Blackjesus, MXMG, The Stig 
and all the other outstanding members of our community of file 
sharers and a special mention to our friends at 1337x.

****************************************************************